<?xml version="1.0" standalone="no"?><!DOCTYPE svg PUBLIC "-//W3C//DTD SVG 1.1//EN" "http://www.w3.org/Graphics/SVG/1.1/DTD/svg11.dtd"><svg t="1709344054514" class="icon" viewBox="0 0 1024 1024" version="1.1" xmlns="http://www.w3.org/2000/svg" p-id="42896" xmlns:xlink="http://www.w3.org/1999/xlink" width="128" height="128"><path d="M 883.662 350.691 C 724.746 453.608 743.702 676.244 911.48 752.542 c -7.39748 18.6058 -14.2403 37.6116 -22.3991 56.0342 c -26.344 59.4592 -61.5723 113.406 -105.185 161.484 c -49.2609 54.2997 -100.764 64.2299 -168.598 36.8278 c -24.3659 -9.84114 -49.704 -18.4318 -75.4054 -23.5146 c -35.0759 -6.93495 -69.4968 0.185218 -102.48 13.7379 c -13.8371 5.68549 -27.6303 11.5101 -41.6619 16.6758 c -47.6114 17.5262 -90.5196 9.63136 -128.346 -24.4754 c -41.58 -37.4929 -73.5399 -82.7394 -100.984 -130.837 c -57.8516 -101.392 -90.009 -210.179 -84.2887 -327.85 c 4.31119 -88.7022 33.8714 -167.038 105.397 -224.258 c 50.2628 -40.2088 108.026 -60.4426 172.751 -51.3649 c 25.0986 3.52017 49.262 13.9518 73.7282 21.6306 c 9.49833 2.97987 18.8206 6.67196 27.9352 10.6946 c 26.8393 11.8437 53.0021 10.7877 80.4094 0.252757 c 33.2155 -12.7657 66.7912 -25.7709 101.353 -33.634 C 731.378 233.997 836.311 277.364 883.662 350.691 Z" fill="#66b9ff" p-id="42897"></path><path d="M 698.312 4.74405 c 14.4327 112.555 -88.6337 241.69 -202.002 233.157 C 468.846 144.646 591.141 2.96452 698.312 4.74405 Z" fill="#66b9ff" p-id="42898"></path></svg>