<?xml version="1.0" standalone="no"?><!DOCTYPE svg PUBLIC "-//W3C//DTD SVG 1.1//EN" "http://www.w3.org/Graphics/SVG/1.1/DTD/svg11.dtd"><svg t="1655427188911" class="icon" viewBox="0 0 1024 1024" version="1.1" xmlns="http://www.w3.org/2000/svg" p-id="6990" xmlns:xlink="http://www.w3.org/1999/xlink" width="200" height="200"><defs><style type="text/css">@font-face { font-family: "feedback-iconfont"; src: url("//at.alicdn.com/t/font_1031158_u69w8yhxdu.woff2?t=1630033759944") format("woff2"), url("//at.alicdn.com/t/font_1031158_u69w8yhxdu.woff?t=1630033759944") format("woff"), url("//at.alicdn.com/t/font_1031158_u69w8yhxdu.ttf?t=1630033759944") format("truetype"); }
</style></defs><path d="M957.44 918.1952a38.92736 38.92736 0 0 1-38.92224 38.92736H105.48736A38.92224 38.92224 0 0 1 66.56 918.1952a38.92736 38.92736 0 0 1 38.92736-38.93248h813.03552a38.92736 38.92736 0 0 1 38.91712 38.93248zM511.91296 808.42752a38.9376 38.9376 0 0 1-38.93248-38.93248V105.80992a38.93248 38.93248 0 0 1 77.85984 0v663.69024a38.93248 38.93248 0 0 1-38.92736 38.92736z" fill="#333333" p-id="6991"></path><path d="M539.42784 796.77952a38.93248 38.93248 0 0 1-55.04 0L192.26624 504.64256a38.92224 38.92224 0 0 1 0-55.04512 38.912 38.912 0 0 1 55.04 0l292.12672 292.13184a38.912 38.912 0 0 1-0.00512 55.05024z" fill="#333333" p-id="6992"></path><path d="M484.38784 796.77952a38.93248 38.93248 0 0 1 0-55.05536l292.13696-292.12672a38.90176 38.90176 0 0 1 55.04512 0 38.912 38.912 0 0 1 0 55.04512l-292.14208 292.13696a38.93248 38.93248 0 0 1-55.04 0z" fill="#333333" p-id="6993"></path></svg>