<?xml version="1.0" standalone="no"?><!DOCTYPE svg PUBLIC "-//W3C//DTD SVG 1.1//EN" "http://www.w3.org/Graphics/SVG/1.1/DTD/svg11.dtd"><svg t="1709342980554" class="icon" viewBox="0 0 1024 1024" version="1.1" xmlns="http://www.w3.org/2000/svg" p-id="16844" xmlns:xlink="http://www.w3.org/1999/xlink" width="128" height="128"><path d="M762.17837 613.129481H567.826963a18.337185 18.337185 0 0 1-18.318222-18.24237c0-10.05037 8.229926-18.24237 18.318222-18.24237h194.332444a18.299259 18.299259 0 0 1 17.502815 18.24237 18.299259 18.299259 0 0 1-17.502815 18.24237z m0 110.610963H567.826963a18.337185 18.337185 0 0 1-18.318222-18.261333 18.337185 18.337185 0 0 1 18.318222-18.24237h194.332444a18.299259 18.299259 0 0 1 17.749334 18.261333c0 9.860741-7.850667 17.938963-17.749334 18.24237z m-459.188148 22.110815a18.090667 18.090667 0 0 1-12.743111 5.537185 18.166519 18.166519 0 0 1-12.762074-5.537185c-7.509333-7.471407-7.509333-17.92 0-25.391407l444.188444-442.443852a18.071704 18.071704 0 0 1 12.743112-5.537185 18.014815 18.014815 0 0 1 12.743111 5.537185 15.68237 15.68237 0 0 1 5.575111 11.58637 18.849185 18.849185 0 0 1-5.556148 13.842963l-444.188445 442.405926zM244.167111 387.489185c0-10.05037 8.210963-18.24237 18.318222-18.24237H341.333333v-78.52563a18.299259 18.299259 0 0 1 18.318223-17.445926c9.803852 0 17.863111 7.68 18.299259 17.445926v78.52563h78.848a18.299259 18.299259 0 0 1 17.502815 18.24237 18.299259 18.299259 0 0 1-17.502815 18.242371H377.931852v78.544592a18.299259 18.299259 0 0 1-18.299259 17.445926 18.299259 18.299259 0 0 1-18.318223-17.445926v-78.544592H262.447407a18.299259 18.299259 0 0 1-18.318222-18.242371h0.018963z m690.403556-155.534222L544.654222 7.68c-17.73037-10.202074-46.800593-10.277926-64.644741 0L90.093037 231.917037c-17.711407 10.145185-32.331852 35.214222-32.331852 55.751111v448.474074c0 20.366222 14.468741 45.492148 32.331852 55.751111l389.916444 224.237037c17.711407 10.183111 46.800593 10.258963 64.644741 0L934.570667 791.893333c17.711407-10.183111 32.331852-35.233185 32.331852-55.751111V287.668148c0-20.347259-14.468741-45.511111-32.331852-55.751111z" fill="#FFAF87" p-id="16845"></path></svg>