<?xml version="1.0" standalone="no"?><!DOCTYPE svg PUBLIC "-//W3C//DTD SVG 1.1//EN" "http://www.w3.org/Graphics/SVG/1.1/DTD/svg11.dtd"><svg t="1708392961083" class="icon" viewBox="0 0 1024 1024" version="1.1" xmlns="http://www.w3.org/2000/svg" p-id="4734" xmlns:xlink="http://www.w3.org/1999/xlink" width="128" height="128"><path d="M537 143.6v126h-48v-126h48m48-48H441v222h144v-222z" fill="#333333" p-id="4735"></path><path d="M205.6 505.5C251 635.8 374.2 724.9 514.5 724.9c140.3 0 263.6-89.2 308.9-219.5L778 489.6c-38.7 111.2-143.9 187.3-263.6 187.3-119.6 0-224.8-76-263.5-187.1l-45.3 15.7z" fill="#333333" p-id="4736"></path><path d="M577.8 316.9l-130.5 60.9L648.8 810l104.6 53.9 25.9-114.7-147-315.3z" fill="#FFFFFF" p-id="4737"></path><path d="M554.5 380.7l34.3 73.5 140.1 300.4-8.6 38.3-34.9-18L511 401l43.5-20.3m23.3-63.8l-130.5 60.9L648.8 810l104.6 53.9 25.9-114.8-147-315.3-54.5-116.9z" fill="#333333" p-id="4738"></path><path d="M448.1 316.9l130.6 60.9L377.1 810l-104.6 53.9-25.9-114.7z" fill="#FFFFFF" p-id="4739"></path><path d="M471.4 380.7l43.5 20.3-174.4 373.9-34.9 18-8.6-38.3 174.4-373.9m-23.3-63.8L246.6 749.2 272.5 864l104.6-54 201.6-432.3-130.6-60.8z" fill="#FFC400" p-id="4740"></path><path d="M513 332.6m-93.6 0a93.6 93.6 0 1 0 187.2 0 93.6 93.6 0 1 0-187.2 0Z" fill="#FFFFFF" p-id="4741"></path><path d="M513 266.6c36.4 0 66 29.6 66 66s-29.6 66-66 66-66-29.6-66-66 29.6-66 66-66m0-48c-63 0-114 51-114 114s51 114 114 114 114-51 114-114-51.1-114-114-114z" fill="#333333" p-id="4742"></path><path d="M513 332.6m-27 0a27 27 0 1 0 54 0 27 27 0 1 0-54 0Z" fill="#FFC400" p-id="4743"></path></svg>