<?xml version="1.0" standalone="no"?><!DOCTYPE svg PUBLIC "-//W3C//DTD SVG 1.1//EN" "http://www.w3.org/Graphics/SVG/1.1/DTD/svg11.dtd"><svg t="1709343188763" class="icon" viewBox="0 0 1024 1024" version="1.1" xmlns="http://www.w3.org/2000/svg" p-id="21955" xmlns:xlink="http://www.w3.org/1999/xlink" width="128" height="128"><path d="M116 126m84.32 0l563.36 0q84.32 0 84.32 84.32l0 463.36q0 84.32-84.32 84.32l-563.36 0q-84.32 0-84.32-84.32l0-463.36q0-84.32 84.32-84.32Z" fill="#495057" p-id="21956"></path><path d="M282.38 597.36a13.28 13.28 0 0 1-13.1-17.12c29.66-97.12 82.84-176 158-234.56 103.6-80.58 216.96-95.56 275.68-97.28h0.52a13.26 13.26 0 1 1 0.76 26.5h-0.5c-55.44 1.62-162.46 15.74-260.12 91.7-70.84 55.1-120.96 129.58-149 221.38a13.28 13.28 0 0 1-12.24 9.38z" fill="#F8F9FA" p-id="21957"></path><path d="M653.38 328.1a13.26 13.26 0 0 1-10-22.36l41.8-44.24-42.96-40.44a13.28 13.28 0 1 1 18.24-19.3l52.64 49.54a13.24 13.24 0 0 1 0.56 18.74L662.64 324a13.26 13.26 0 0 1-9.26 4.1zM272.12 690.48a60.56 60.56 0 1 1 58.88-62.3 60.7 60.7 0 0 1-58.88 62.3zM269.34 596a34 34 0 1 0 35.08 33.02A34.1 34.1 0 0 0 269.34 596zM240.7 347.84a12.16 12.16 0 0 1-8.6-20.76l64.32-64.32a12.16 12.16 0 0 1 17.2 17.2l-64.32 64.32a12.12 12.12 0 0 1-8.6 3.56z" fill="#F8F9FA" p-id="21958"></path><path d="M305.02 347.84a12.12 12.12 0 0 1-8.6-3.56L232.1 280a12.16 12.16 0 0 1 17.2-17.2l64.32 64.32a12.16 12.16 0 0 1-8.6 20.76z" fill="#F8F9FA" p-id="21959"></path><path d="M715.72 466c-83.22 3.16-151.02 70.82-154.22 153.88a160 160 0 0 0 73.12 140.78 34.14 34.14 0 0 1 15.38 28.68v27.22h144v-27.22a35.16 35.16 0 0 1 16.22-29.34 160.24 160.24 0 0 0-94.5-294z" fill="#FFD43B" p-id="21960"></path><path d="M686.46 870.52a35.54 35.48 0 1 0 71.08 0 35.54 35.48 0 1 0-71.08 0Z" fill="#495057" p-id="21961"></path><path d="M649.38 790.38h144.12v68.68a27.6 27.6 0 0 1-27.6 27.6h-88.92a27.6 27.6 0 0 1-27.6-27.6v-68.68z" fill="#868E96" p-id="21962"></path><path d="M669.02 817.64m5.72 0l93.4 0q5.72 0 5.72 5.72l0-0.02q0 5.72-5.72 5.72l-93.4 0q-5.72 0-5.72-5.72l0 0.02q0-5.72 5.72-5.72Z" fill="#495057" p-id="21963"></path><path d="M669.02 847.96m5.72 0l93.4 0q5.72 0 5.72 5.72l0-0.02q0 5.72-5.72 5.72l-93.4 0q-5.72 0-5.72-5.72l0 0.02q0-5.72 5.72-5.72Z" fill="#495057" p-id="21964"></path><path d="M722 448.14a8.3 8.3 0 0 1-8.3-8.3v-21.54a8.3 8.3 0 0 1 16.62 0v21.56a8.3 8.3 0 0 1-8.32 8.28zM630 472.76a8.3 8.3 0 0 1-7.2-4.14L612 450a8.3 8.3 0 0 1 14.38-8.3l10.8 18.66a8.3 8.3 0 0 1-7.18 12.44zM562.56 540a8.28 8.28 0 0 1-4.14-1.12l-18.7-10.78a8.3 8.3 0 1 1 8.3-14.36l18.7 10.78a8.3 8.3 0 0 1-4.16 15.48zM538 631.88h-21.6a8.3 8.3 0 1 1 0-16.58H538a8.3 8.3 0 1 1 0 16.58zM543.88 734.52a8.3 8.3 0 0 1-4.16-15.48l18.7-10.78a8.3 8.3 0 1 1 8.3 14.36l-18.72 10.8a8.3 8.3 0 0 1-4.12 1.1zM619.14 809.66a8.3 8.3 0 0 1-7.18-12.44l10.8-18.66a8.3 8.3 0 0 1 14.38 8.3l-10.8 18.66a8.3 8.3 0 0 1-7.2 4.14zM824.86 809.66a8.3 8.3 0 0 1-7.2-4.14l-10.8-18.66a8.3 8.3 0 0 1 14.38-8.3l10.8 18.66a8.3 8.3 0 0 1-7.18 12.44zM900.12 734.52a8.28 8.28 0 0 1-4.14-1.12l-18.7-10.78a8.3 8.3 0 1 1 8.3-14.36l18.7 10.78a8.3 8.3 0 0 1-4.16 15.48zM927.7 631.88H906a8.3 8.3 0 1 1 0-16.58h21.6a8.3 8.3 0 1 1 0 16.58zM881.44 540a8.3 8.3 0 0 1-4.16-15.48l18.7-10.78a8.3 8.3 0 1 1 8.3 14.36l-18.7 10.78a8.28 8.28 0 0 1-4.14 1.12zM814 472.76a8.3 8.3 0 0 1-7.18-12.44l10.8-18.66A8.3 8.3 0 0 1 832 450l-10.8 18.66a8.3 8.3 0 0 1-7.2 4.1z" fill="#FAB005" p-id="21965"></path><path d="M754.24 584.76a10.32 10.32 0 0 1-13.14-2.28 18.6 18.6 0 0 0-4.66-4.16 25.42 25.42 0 0 0-27.42 2.18 16 16 0 0 0-6 12.82q0 10.66 15.88 17.18l14.56 6q17.78 7.18 26 17.5a39.4 39.4 0 0 1 8.22 25.34 44.48 44.48 0 0 1-13.42 33.22 46.12 46.12 0 0 1-33.56 13.22q-19 0-31.38-11.22a46.18 46.18 0 0 1-12.26-19.26 11.28 11.28 0 0 1 8.12-14.78 11.32 11.32 0 0 1 13.22 8.14 21.68 21.68 0 0 0 3.28 7.14q6.8 9.44 19.86 9.44a23.06 23.06 0 0 0 17.12-6.88 23.8 23.8 0 0 0 6.8-17.46 24.48 24.48 0 0 0-1.18-7.78 19.78 19.78 0 0 0-3.68-6.5 29.5 29.5 0 0 0-6.48-5.56 62.44 62.44 0 0 0-9.46-4.96l-14-5.86q-30-12.64-30-36.98a35.06 35.06 0 0 1 12.58-27.46 45.48 45.48 0 0 1 31.28-11.14 41.32 41.32 0 0 1 32.16 14.38 10.36 10.36 0 0 1-2.44 15.72z" fill="#F08C00" p-id="21966"></path><path d="M722 727.86a11.56 11.56 0 0 1-11.56-11.54v-13.1a11.56 11.56 0 0 1 23.12 0v13.1a11.56 11.56 0 0 1-11.56 11.54zM722 569.18a11.56 11.56 0 0 1-11.56-11.54v-13.1a11.56 11.56 0 0 1 23.12 0v13.1a11.56 11.56 0 0 1-11.56 11.54z" fill="#F08C00" p-id="21967"></path></svg>